<svg width="668" height="670" viewBox="0 0 668 670" fill="none" xmlns="http://www.w3.org/2000/svg">
<g clip-path="url(#clip0_101_2)">
<path d="M384.281 285.512C402.917 304.148 409.628 329.196 402.808 354.652C395.986 380.11 377.65 398.446 352.193 405.266C326.736 412.088 301.688 405.376 283.053 386.74C264.417 368.104 257.706 343.057 264.527 317.6C271.348 292.143 289.685 273.807 315.142 266.986C340.583 260.172 365.636 266.885 384.272 285.524" stroke="black" stroke-width="0.5892" stroke-miterlimit="10" stroke-linejoin="round"/>
<path fill-rule="evenodd" clip-rule="evenodd" d="M305.604 336.121L81.7206 336.123L305.604 336.121ZM333.664 308.061L333.671 84.1728L333.664 308.061ZM361.723 336.121L585.615 336.114L361.723 336.121ZM333.663 364.18L333.67 588.073L333.663 364.18Z" fill="#FFFCFC"/>
<path fill-rule="evenodd" clip-rule="evenodd" d="M415.933 253.855L353.354 336.126L415.93 418.39L333.667 355.807L251.395 418.387L313.978 336.124L251.398 253.852L333.669 316.43L415.933 253.855Z" fill="#6E6E6E"/>
<path fill-rule="evenodd" clip-rule="evenodd" d="M513.718 336.124L353.715 356.171L333.669 516.17L313.613 356.173L153.62 336.123L313.612 316.07L333.67 156.073L353.714 316.069L513.718 336.124Z" fill="black"/>
<path d="M513.718 336.124L353.715 356.171L333.669 516.17L313.613 356.173L153.62 336.123L313.612 316.07L333.67 156.073L353.714 316.069L513.718 336.124Z" stroke="black" stroke-width="2.0905" stroke-miterlimit="10" stroke-linejoin="round"/>
<path d="M289.583 266.851C289.115 265.215 295.348 261.942 295.771 263.421C300.564 275.145 303.217 278.166 303.217 278.166L298.395 280.822C299.218 281.767 295.002 272.965 289.582 266.857M330.123 254.097C330.537 252.445 337.571 252.727 337.197 254.221C335.485 266.771 336.272 270.713 336.272 270.713L330.768 270.602C331.025 271.827 331.767 262.092 330.132 254.099M371.621 263.32C372.804 262.096 378.755 265.858 377.685 266.964C369.927 276.977 368.639 280.784 368.639 280.784L363.928 277.936C363.532 279.111 369.043 271.056 371.616 263.312M402.936 292.041C404.574 291.573 407.846 297.806 406.367 298.229C394.642 303.022 391.622 305.674 391.622 305.674L388.967 300.852C388.026 301.684 396.831 297.455 402.931 292.039M415.7 332.576C417.351 332.989 417.068 340.024 415.575 339.649C403.024 337.938 399.083 338.725 399.083 338.725L399.194 333.221C397.96 333.483 407.695 334.225 415.697 332.585M406.476 374.073C407.701 375.257 403.937 381.208 402.832 380.138C392.819 372.38 389.012 371.092 389.012 371.092L391.859 366.382C390.675 365.991 398.73 371.502 406.473 374.075M377.745 405.395C378.213 407.031 371.979 410.304 371.556 408.824C366.763 397.1 364.111 394.081 364.111 394.081L368.934 391.424C368.112 390.501 372.328 399.303 377.752 405.397M337.215 418.166C336.803 419.819 329.768 419.535 330.141 418.041C331.852 405.491 331.066 401.551 331.066 401.551L336.569 401.662C336.304 400.441 335.557 410.168 337.206 418.164M295.709 408.949C294.525 410.172 288.574 406.41 289.644 405.305C297.401 395.292 298.69 391.485 298.69 391.485L303.401 394.333C303.8 393.144 298.289 401.199 295.708 408.948M264.388 380.219C262.75 380.687 259.478 374.454 260.958 374.031C272.682 369.238 275.702 366.585 275.702 366.585L278.357 371.408C279.298 370.576 270.501 374.8 264.393 380.22M251.633 339.679C249.981 339.266 250.264 332.232 251.757 332.605C264.307 334.316 268.249 333.529 268.249 333.529L268.138 339.033C269.35 338.772 259.615 338.03 251.627 339.675M260.843 298.177C259.619 296.993 263.381 291.043 264.487 292.112C274.5 299.87 278.306 301.159 278.306 301.159L275.458 305.87C276.638 306.274 268.584 300.763 260.835 298.181" stroke="black" stroke-width="1.8528" stroke-miterlimit="10" stroke-linejoin="round"/>
<path fill-rule="evenodd" clip-rule="evenodd" d="M346.32 332.902L357.776 322.084L484.91 332.907L346.32 332.902Z" fill="white"/>
<path fill-rule="evenodd" clip-rule="evenodd" d="M337.315 347.165L348.084 359.157L337.314 485.764L337.315 347.165Z" fill="white"/>
<path fill-rule="evenodd" clip-rule="evenodd" d="M321.008 339.34L308.971 350.112L182.422 339.343L321.008 339.34Z" fill="white"/>
<path fill-rule="evenodd" clip-rule="evenodd" d="M330.444 323.465L319.767 310.45L330.45 184.875L330.444 323.465Z" fill="white"/>
<path fill-rule="evenodd" clip-rule="evenodd" d="M348.55 321.245C356.763 329.458 356.763 342.79 348.55 351.003C340.336 359.216 327.005 359.215 318.792 351.002C310.579 342.789 310.579 329.456 318.792 321.245C327.004 313.028 340.333 313.034 348.55 321.246L348.55 321.245Z" fill="#FFFCFC"/>
<path d="M348.55 321.245C356.763 329.458 356.763 342.79 348.55 351.003C340.336 359.216 327.005 359.215 318.792 351.002C310.579 342.789 310.579 329.456 318.792 321.245C327.004 313.028 340.333 313.034 348.55 321.246L348.55 321.245Z" stroke="black" stroke-width="2.9459" stroke-miterlimit="10" stroke-linejoin="round"/>
<path d="M326.704 61.6667C332.542 67.6688 338.378 73.6714 344.215 79.6726C345.022 75.0902 339.646 73.0048 337.373 69.6695C334.31 66.922 331.745 63.0035 328.379 60.9677C327.83 61.256 324.625 60.2853 326.704 61.6667V61.6667ZM344.325 61.187C344.948 62.4807 345.226 61.908 345.854 60.9663C345.746 61.1608 343.505 60.618 344.329 61.185L344.325 61.187ZM325.576 79.9527C323.978 81.1839 327.206 80.7365 325.576 79.9527V79.9527Z" fill="#FFF6F6"/>
<path d="M342.445 595.57C341.501 595.676 343.28 597.097 342.445 595.57V595.57ZM325.688 595.707C323.389 598.511 326.054 602.119 329.112 602.63C333.516 604.651 339.362 604.268 342.792 607.988C343.656 608.629 343.289 611.687 343.971 609.681C345.546 605.873 341.164 603.108 337.913 602.703C334.015 601.124 328.438 601.676 326.02 597.695C325.682 597.151 325.771 595.784 325.693 595.69L325.688 595.707ZM325.157 611.925C325.922 611.324 327.723 611.577 326.096 610.562C324.476 608.31 325.392 610.298 325.157 611.924L325.157 611.925Z" fill="#FFF6F6"/>
<path d="M590.709 325.217C592.7 329.501 590.983 334.577 591.556 339.137C591.541 341.046 591.795 343.195 590.561 344.79C595.79 346.375 593.274 340.212 593.838 337.13C593.838 333.129 593.838 329.126 593.838 325.126C592.923 325.181 591.308 325.004 590.716 325.219L590.709 325.217ZM606.231 325.32C607.095 325.691 608.392 328.831 608.018 326.295C609.038 324.54 605.814 325.016 606.23 325.318L606.231 325.32ZM601.081 333.721C600.367 334.718 598.805 335.271 600.474 336.077C602.028 338.828 600.914 333.617 601.077 333.72L601.081 333.721ZM608.458 341.898C607.742 343.06 606.743 343.99 605.659 344.788C609.098 345.505 608.863 343.758 608.46 341.901L608.458 341.898Z" fill="#FFF6F6"/>
<path fill-rule="evenodd" clip-rule="evenodd" d="M317.531 337.318C320.847 348.779 330.839 352.878 346.9 348.589C347.136 348.682 337.245 355.328 329.254 353.178C319.722 350.61 315.68 337.609 317.531 337.314L317.531 337.318Z" fill="#888888"/>
<path fill-rule="evenodd" clip-rule="evenodd" d="M350.994 340.618C352.339 328.026 340.691 316.319 328.064 317.832C327.891 317.646 335.478 316.197 342.911 319.838C353.611 325.091 353.552 340.888 350.987 340.625L350.994 340.618Z" fill="#888888"/>
</g>
<defs>
<clipPath id="clip0_101_2">
<rect width="487.932" height="490.305" fill="white" transform="translate(0.109009 244.827) rotate(-30)"/>
</clipPath>
</defs>
</svg>
