<svg width="488" height="491" viewBox="0 0 488 491" fill="none" xmlns="http://www.w3.org/2000/svg">
<g clip-path="url(#clip0_101_2)">
<path d="M293.835 195.234C312.472 213.87 319.182 238.919 312.363 264.375C305.54 289.833 287.205 308.168 261.747 314.988C236.291 321.811 211.243 315.098 192.607 296.462C173.972 277.826 167.261 252.779 174.081 227.322C180.902 201.865 199.239 183.529 224.696 176.708C250.138 169.894 275.191 176.607 293.827 195.246" stroke="black" stroke-width="0.5892" stroke-miterlimit="10" stroke-linejoin="round"/>
<path fill-rule="evenodd" clip-rule="evenodd" d="M215.159 245.843L-8.72493 245.845L215.159 245.843ZM243.218 217.784L243.225 -6.1049L243.218 217.784ZM271.278 245.844L495.17 245.836L271.278 245.844ZM243.218 273.903L243.225 497.795L243.218 273.903Z" fill="#FFFCFC"/>
<path fill-rule="evenodd" clip-rule="evenodd" d="M325.487 163.577L262.909 245.849L325.484 328.112L243.221 265.529L160.949 328.109L223.532 245.846L160.952 163.574L243.224 226.152L325.487 163.577Z" fill="#FBBF24"/>
<path fill-rule="evenodd" clip-rule="evenodd" d="M423.272 245.846L263.27 265.894L243.224 425.893L223.168 265.895L63.174 245.846L223.167 225.793L243.225 65.7949L263.269 225.792L423.272 245.846Z" fill="black"/>
<path d="M423.272 245.846L263.27 265.894L243.224 425.893L223.168 265.895L63.174 245.846L223.167 225.793L243.225 65.7949L263.269 225.792L423.272 245.846Z" stroke="black" stroke-width="2.0905" stroke-miterlimit="10" stroke-linejoin="round"/>
<path d="M199.137 176.573C198.67 174.937 204.902 171.664 205.326 173.144C210.119 184.868 212.771 187.888 212.771 187.888L207.949 190.544C208.772 191.489 204.557 182.688 199.136 176.579M239.678 163.819C240.091 162.167 247.126 162.45 246.751 163.943C245.039 176.494 245.827 180.435 245.827 180.435L240.323 180.324C240.58 181.55 241.322 171.814 239.686 163.821M281.175 173.042C282.359 171.818 288.31 175.58 287.239 176.686C279.482 186.7 278.193 190.506 278.193 190.506L273.482 187.658C273.087 188.833 278.598 180.778 281.17 173.035M312.491 201.763C314.128 201.295 317.4 207.528 315.921 207.951C304.196 212.745 301.177 215.397 301.177 215.397L298.521 210.575C297.581 211.406 306.386 207.177 312.485 201.762M325.254 242.298C326.905 242.711 326.623 249.746 325.129 249.371C312.578 247.661 308.638 248.447 308.638 248.447L308.749 242.943C307.514 243.206 317.25 243.947 325.251 242.307M316.03 283.796C317.255 284.979 313.491 290.93 312.386 289.86C302.373 282.103 298.567 280.814 298.567 280.814L301.413 276.104C300.229 275.713 308.284 281.224 316.028 283.797M287.299 315.118C287.768 316.754 281.534 320.026 281.11 318.546C276.317 306.822 273.665 303.803 273.665 303.803L278.488 301.146C277.667 300.224 281.882 309.025 287.306 315.12M246.77 327.888C246.358 329.541 239.322 329.257 239.696 327.764C241.407 315.214 240.62 311.273 240.62 311.273L246.124 311.384C245.858 310.164 245.111 319.89 246.761 327.887M205.263 318.671C204.079 319.895 198.129 316.132 199.198 315.027C206.955 305.014 208.245 301.207 208.245 301.207L212.956 304.055C213.355 302.866 207.844 310.921 205.262 318.67M173.942 289.941C172.305 290.41 169.033 284.176 170.512 283.753C182.236 278.96 185.256 276.308 185.256 276.308L187.912 281.13C188.852 280.298 180.056 284.522 173.947 289.943M161.187 249.401C159.535 248.988 159.818 241.954 161.312 242.327C173.862 244.039 177.803 243.251 177.803 243.251L177.692 248.755C178.904 248.494 169.169 247.752 161.181 249.397M170.397 207.899C169.173 206.716 172.935 200.765 174.041 201.835C184.054 209.592 187.861 210.881 187.861 210.881L185.013 215.592C186.193 215.996 178.138 210.485 170.389 207.904" stroke="black" stroke-width="1.8528" stroke-miterlimit="10" stroke-linejoin="round"/>
<path fill-rule="evenodd" clip-rule="evenodd" d="M255.874 242.624L267.33 231.807L394.464 242.629L255.874 242.624Z" fill="white"/>
<path fill-rule="evenodd" clip-rule="evenodd" d="M246.869 256.887L257.638 268.879L246.869 395.486L246.869 256.887Z" fill="white"/>
<path fill-rule="evenodd" clip-rule="evenodd" d="M230.562 249.062L218.525 259.834L91.9769 249.066L230.562 249.062Z" fill="white"/>
<path fill-rule="evenodd" clip-rule="evenodd" d="M239.999 233.187L229.321 220.173L240.004 94.5969L239.999 233.187Z" fill="white"/>
<path fill-rule="evenodd" clip-rule="evenodd" d="M258.104 230.967C266.318 239.181 266.317 252.512 258.104 260.725C249.891 268.938 236.559 268.938 228.347 260.725C220.133 252.511 220.133 239.179 228.347 230.967C236.558 222.75 249.887 222.757 258.104 230.968L258.104 230.967Z" fill="#FFFCFC"/>
<path d="M258.104 230.967C266.318 239.181 266.317 252.512 258.104 260.725C249.891 268.938 236.559 268.938 228.347 260.725C220.133 252.511 220.133 239.179 228.347 230.967C236.558 222.75 249.887 222.757 258.104 230.968L258.104 230.967Z" stroke="black" stroke-width="2.9459" stroke-miterlimit="10" stroke-linejoin="round"/>
<path fill-rule="evenodd" clip-rule="evenodd" d="M227.085 247.04C230.401 258.502 240.393 262.601 256.455 258.311C256.69 258.404 246.8 265.051 238.808 262.901C229.277 260.332 225.235 247.331 227.085 247.036L227.085 247.04Z" fill="#888888"/>
<path fill-rule="evenodd" clip-rule="evenodd" d="M260.549 250.34C261.894 237.748 250.246 226.041 237.618 227.554C237.445 227.368 245.033 225.92 252.465 229.56C263.166 234.814 263.106 250.61 260.541 250.347L260.549 250.34Z" fill="#888888"/>
</g>
<defs>
<clipPath id="clip0_101_2">
<rect width="487.932" height="490.305" fill="white"/>
</clipPath>
</defs>
</svg>
